<svg width="31" height="31" viewBox="0 0 31 31" fill="none" xmlns="http://www.w3.org/2000/svg">
<g filter="url(#filter0_i_2_67542)">
<circle cx="15.5" cy="15.2812" r="15" fill="#487BFF"/>
</g>
<circle cx="15.5" cy="15.2812" r="14.1646" stroke="#487BFF" stroke-width="1.67084"/>
<path d="M13.4065 19.9487C14.1194 19.8786 14.4098 19.6208 14.4758 19.3084L14.5682 18.8533L13.4065 19.9487ZM13.4065 19.9487C12.6934 20.019 12.4822 19.8103 12.5482 19.498L13.4065 19.9487ZM18.182 16.0747L18.0584 16.0869L18.0344 16.2088L17.4934 18.9623C17.4696 19.0737 17.4069 19.1787 17.2729 19.2672C17.1337 19.3592 16.9125 19.4362 16.5714 19.4697C16.2228 19.504 16.0389 19.464 15.9541 19.4118C15.917 19.3889 15.9012 19.3653 15.8933 19.3424C15.8843 19.3167 15.8807 19.2775 15.8929 19.2198L15.8933 19.2177L17.5042 11.0822L17.5044 11.0807C17.5342 10.9227 17.5843 10.8111 17.6551 10.7358C17.7228 10.6638 17.8243 10.6093 17.9903 10.5929C17.9903 10.5929 17.9903 10.5929 17.9904 10.5929L20.38 10.3581L20.38 10.3581C21.2594 10.2716 21.9007 10.4535 22.2796 10.8494C22.6561 11.2428 22.8151 11.892 22.6293 12.8384C22.2482 14.7258 20.9116 15.8064 19.1723 15.9774L18.182 16.0747ZM19.8324 11.6563L19.8488 11.8226L19.8324 11.6563L19.0403 11.7342L18.9169 11.7463L18.8928 11.8679L18.3515 14.5972L18.3077 14.818L18.5317 14.796L19.3238 14.7181C19.7702 14.6742 20.1503 14.5166 20.444 14.2381C20.737 13.9604 20.9317 13.5742 21.0292 13.0939L21.0293 13.0939L21.0297 13.0917C21.1186 12.6208 21.0818 12.2274 20.8619 11.9632C20.638 11.6944 20.2709 11.6132 19.8324 11.6563ZM15.844 11.5026L15.844 11.5026L15.8433 11.5063C15.7141 12.186 15.5258 12.7372 15.1582 13.2964C14.7885 13.8588 14.2318 14.4378 13.3529 15.1636L13.204 15.2866L13.3471 15.4162C13.9775 15.9876 14.3016 16.5037 14.4413 17.0337C14.5818 17.5667 14.5412 18.1339 14.4044 18.8202C14.4044 18.8203 14.4044 18.8205 14.4044 18.8206L14.3123 19.2739C14.3123 19.2741 14.3123 19.2743 14.3122 19.2745C14.2885 19.3862 14.2258 19.4914 14.0916 19.58C13.9525 19.6719 13.7312 19.7489 13.3901 19.7824L13.3901 19.7824C13.0415 19.8168 12.8576 19.7769 12.7728 19.7246C12.7358 19.7017 12.7199 19.6781 12.712 19.6552C12.703 19.6295 12.6994 19.5903 12.7116 19.5325L12.7117 19.5325L12.7123 19.529L12.8177 18.972C12.8177 18.9718 12.8178 18.9716 12.8178 18.9714C12.9121 18.4936 12.9406 18.0721 12.8243 17.6661C12.7073 17.2578 12.4501 16.8859 12.0128 16.4936L11.9071 16.3987L11.7964 16.4879C11.1944 16.973 10.7936 17.3934 10.5197 17.8186C10.2444 18.2459 10.1029 18.6693 10.0077 19.1513L10.0075 19.1526L9.90222 19.7091C9.87831 19.8204 9.81562 19.9252 9.68186 20.0136C9.5427 20.1055 9.32145 20.1825 8.98034 20.216C8.6317 20.2503 8.44787 20.2104 8.36305 20.1581C8.32599 20.1353 8.31015 20.1116 8.30221 20.0888C8.29327 20.0631 8.28965 20.0239 8.30186 19.9661L8.30213 19.9648L8.39454 19.5096L8.39466 19.509C8.53095 18.8254 8.71702 18.2349 9.08758 17.6352C9.45912 17.0338 10.0219 16.414 10.9238 15.6818L11.0724 15.5612L10.9329 15.4302C10.3232 14.8578 9.99242 14.3809 9.83937 13.8907C9.68644 13.4009 9.70416 12.8766 9.83378 12.1936L9.939 11.7008L9.93914 11.7009L9.94032 11.6939C9.97345 11.4989 10.1708 11.2598 10.8613 11.192C11.2099 11.1577 11.3899 11.198 11.4727 11.2498C11.5089 11.2725 11.5255 11.2965 11.5344 11.3212C11.5441 11.3485 11.5484 11.3886 11.5389 11.446L11.4339 11.9633L11.4339 11.9633L11.4337 11.9641C11.3313 12.4816 11.3341 12.8998 11.4735 13.2861C11.612 13.6701 11.8783 14.0023 12.2624 14.3613L12.3708 14.4627L12.4843 14.367C13.5406 13.476 14.035 12.8391 14.2436 11.7854C14.2436 11.7852 14.2436 11.7851 14.2437 11.7849L14.3491 11.2656L14.3492 11.2656L14.3501 11.2604C14.3832 11.0653 14.5806 10.8263 15.2712 10.7584L15.2713 10.7584C15.6198 10.7241 15.7997 10.7645 15.8825 10.8163C15.9186 10.8389 15.9353 10.8629 15.9441 10.8877C15.9539 10.9149 15.9581 10.9548 15.9488 11.0118L15.844 11.5026Z" fill="#E1E1E1" stroke="#F7F8FA" stroke-width="0.334167"/>
<defs>
<filter id="filter0_i_2_67542" x="0.5" y="0.28125" width="30" height="31.6708" filterUnits="userSpaceOnUse" color-interpolation-filters="sRGB">
<feFlood flood-opacity="0" result="BackgroundImageFix"/>
<feBlend mode="normal" in="SourceGraphic" in2="BackgroundImageFix" result="shape"/>
<feColorMatrix in="SourceAlpha" type="matrix" values="0 0 0 0 0 0 0 0 0 0 0 0 0 0 0 0 0 0 127 0" result="hardAlpha"/>
<feMorphology radius="1.67084" operator="erode" in="SourceAlpha" result="effect1_innerShadow_2_67542"/>
<feOffset dy="1.67084"/>
<feGaussianBlur stdDeviation="1.67084"/>
<feComposite in2="hardAlpha" operator="arithmetic" k2="-1" k3="1"/>
<feColorMatrix type="matrix" values="0 0 0 0 0.176471 0 0 0 0 0.294118 0 0 0 0 0.772549 0 0 0 1 0"/>
<feBlend mode="normal" in2="shape" result="effect1_innerShadow_2_67542"/>
</filter>
</defs>
</svg>
