<svg width="31" height="32" viewBox="0 0 31 32" fill="none" xmlns="http://www.w3.org/2000/svg">
<path fill-rule="evenodd" clip-rule="evenodd" d="M0 3.33497C0 2.61599 0.582848 2.03314 1.30183 2.03314H12.2369C12.9559 2.03314 13.5388 2.61599 13.5388 3.33497V13.0555C13.5388 13.7745 12.9559 14.3573 12.2369 14.3573H1.30183C0.582848 14.3573 0 13.7745 0 13.0555V3.33497ZM2.60365 4.63679V11.7537H10.9351V4.63679H2.60365Z" fill="#487BFF"/>
<path fill-rule="evenodd" clip-rule="evenodd" d="M15.8197 9.28972C15.3113 8.78132 15.3113 7.95703 15.8197 7.44862L22.0679 1.20015C22.5763 0.691746 23.4005 0.691746 23.9089 1.20015L30.1571 7.44862C30.6655 7.95703 30.6655 8.78132 30.1571 9.28972L23.9089 15.5382C23.4005 16.0466 22.5763 16.0466 22.0679 15.5382L15.8197 9.28972ZM18.5812 8.36917L22.9884 12.7765L27.3956 8.36917L22.9884 3.96181L18.5812 8.36917Z" fill="#487BFF"/>
<path fill-rule="evenodd" clip-rule="evenodd" d="M0 19.1301C0 18.4111 0.582848 17.8283 1.30183 17.8283H12.2369C12.9559 17.8283 13.5388 18.4111 13.5388 19.1301V30.0657C13.5388 30.7847 12.9559 31.3675 12.2369 31.3675H1.30183C0.582848 31.3675 0 30.7847 0 30.0657V19.1301ZM2.60365 20.4319V28.7639H10.9351V20.4319H2.60365Z" fill="#487BFF"/>
<path fill-rule="evenodd" clip-rule="evenodd" d="M15.7943 19.13C15.7943 18.411 16.3772 17.8282 17.0962 17.8282H26.8163C27.5352 17.8282 28.1181 18.411 28.1181 19.13V30.0656C28.1181 30.7846 27.5352 31.3674 26.8163 31.3674H17.0962C16.3772 31.3674 15.7943 30.7846 15.7943 30.0656V19.13ZM18.398 20.4318V28.7638H25.5144V20.4318H18.398Z" fill="#487BFF"/>
</svg>
