<svg width="24" height="23" viewBox="0 0 24 23" fill="none" xmlns="http://www.w3.org/2000/svg">
<path d="M12.0002 16.3889C10.4196 16.3889 9.04385 17.5836 8.33358 19.3461C7.99434 20.1879 8.48113 21.1111 9.12796 21.1111H14.8725C15.5193 21.1111 16.0061 20.1879 15.6669 19.3461C14.9566 17.5836 13.5809 16.3889 12.0002 16.3889Z" stroke="#4979D1" stroke-linecap="round"/>
<path d="M18.1388 5.05554H19.2742C20.4084 5.05554 20.9754 5.05554 21.2713 5.41194C21.5671 5.76833 21.4442 6.30328 21.1981 7.37316L20.8291 8.97789C20.2741 11.3914 18.2435 13.1861 15.7777 13.5555" stroke="#4979D1" stroke-linecap="round" stroke-linejoin="round"/>
<path d="M5.86108 5.05554H4.72566C3.59151 5.05554 3.02443 5.05554 2.72859 5.41194C2.43274 5.76833 2.55575 6.30328 2.80179 7.37316L3.17081 8.97789C3.72583 11.3914 5.75636 13.1861 8.22219 13.5555" stroke="#4979D1" stroke-linecap="round" stroke-linejoin="round"/>
<path d="M12 16.3888C14.8529 16.3888 17.2558 11.9857 17.978 5.99134C18.1778 4.33355 18.2777 3.50466 17.7486 2.86341C17.2196 2.22217 16.3655 2.22217 14.6571 2.22217H9.34284C7.6345 2.22217 6.78033 2.22217 6.25129 2.86341C5.72225 3.50466 5.82211 4.33355 6.02186 5.99134C6.74412 11.9857 9.14701 16.3888 12 16.3888Z" stroke="#4979D1" stroke-linecap="round"/>
</svg>
