<svg width="14" height="14" viewBox="0 0 14 14" fill="none" xmlns="http://www.w3.org/2000/svg">
<g clip-path="url(#clip0_2238_617)">
<path d="M7 13.5625C10.6244 13.5625 13.5625 10.6244 13.5625 7C13.5625 3.37563 10.6244 0.4375 7 0.4375C3.37563 0.4375 0.4375 3.37563 0.4375 7C0.4375 10.6244 3.37563 13.5625 7 13.5625Z" fill="#FAA037"/>
<path d="M11.6505 2.37573C12.7007 3.68464 13.2096 5.34613 13.0726 7.01867C12.9355 8.69121 12.1629 10.2477 10.9136 11.3681C9.66428 12.4886 8.03321 13.0879 6.35567 13.0428C4.67813 12.9977 3.0816 12.3117 1.89429 11.1257C2.45259 11.8216 3.14691 12.3963 3.93482 12.8147C4.72273 13.2331 5.58768 13.4865 6.47682 13.5594C7.36597 13.6323 8.26064 13.5231 9.10616 13.2385C9.95168 12.9539 10.7303 12.5 11.3944 11.9043C12.0586 11.3087 12.5943 10.5838 12.9689 9.77416C13.3435 8.96448 13.549 8.08693 13.573 7.19513C13.5969 6.30332 13.4388 5.416 13.1083 4.58736C12.7778 3.75873 12.2817 3.00619 11.6505 2.37573Z" fill="#F5732D"/>
<path d="M7 11.8125C9.65787 11.8125 11.8125 9.65787 11.8125 7C11.8125 4.34213 9.65787 2.1875 7 2.1875C4.34213 2.1875 2.1875 4.34213 2.1875 7C2.1875 9.65787 4.34213 11.8125 7 11.8125Z" fill="#E6E6EB"/>
<path d="M10.7845 4.03809C11.2612 4.79405 11.5159 5.66875 11.5195 6.56246C11.5208 7.56386 11.2097 8.54074 10.6296 9.35696C10.0494 10.1732 9.22907 10.7881 8.28288 11.116C7.33668 11.4439 6.31176 11.4685 5.35094 11.1864C4.39011 10.9042 3.54124 10.3293 2.92261 9.54184C3.26561 10.1014 3.71944 10.5849 4.2562 10.9625C4.79296 11.3402 5.40129 11.6041 6.0438 11.738C6.68632 11.8719 7.34942 11.873 7.99236 11.7411C8.63529 11.6093 9.24447 11.3473 9.78242 10.9713C10.3204 10.5954 10.7757 10.1133 11.1205 9.55487C11.4653 8.99641 11.6922 8.37334 11.7873 7.72395C11.8824 7.07456 11.8436 6.41258 11.6734 5.77872C11.5032 5.14486 11.2052 4.5525 10.7976 4.03809H10.7845Z" fill="#A5C3DC"/>
<path d="M8.62756 7.16192C8.3511 6.88972 8.01582 6.68466 7.64756 6.56255L7.52506 6.51442V5.68755C7.78873 5.73094 8.0469 5.80282 8.29506 5.90192C8.34848 5.92209 8.40768 5.92057 8.46 5.89768C8.51232 5.87479 8.55361 5.83235 8.57506 5.77942L8.82881 5.1538C8.84916 5.09976 8.84776 5.03994 8.82492 4.9869C8.80207 4.93387 8.75956 4.89176 8.70631 4.86942C8.32938 4.71489 7.93102 4.61898 7.52506 4.58505V4.22192C7.52506 4.16391 7.50201 4.10827 7.46099 4.06724C7.41996 4.02622 7.36433 4.00317 7.30631 4.00317H6.86881C6.81114 4.00429 6.75615 4.0277 6.71537 4.06848C6.67459 4.10927 6.65118 4.16426 6.65006 4.22192V4.60692C6.31693 4.65619 6.00206 4.79028 5.73568 4.9963C5.59515 5.10969 5.48259 5.25391 5.40672 5.41778C5.33086 5.58165 5.29372 5.76078 5.29818 5.9413C5.29165 6.26107 5.40211 6.57222 5.60881 6.8163C5.85994 7.07872 6.17057 7.27681 6.51443 7.3938L6.65881 7.4463V8.3213C6.51126 8.30568 6.36504 8.27936 6.22131 8.24255C5.99992 8.18825 5.78448 8.11204 5.57818 8.01505C5.54587 7.99781 5.50981 7.9888 5.47318 7.9888C5.43656 7.9888 5.4005 7.99781 5.36818 8.01505C5.33628 8.03398 5.30983 8.06086 5.29143 8.09306C5.27302 8.12527 5.26329 8.1617 5.26318 8.1988V8.92067C5.2641 8.96313 5.27688 9.00447 5.30007 9.04004C5.32327 9.07561 5.35596 9.10397 5.39443 9.12192C5.79441 9.28832 6.22142 9.38024 6.65443 9.39317V9.90067C6.65443 9.95869 6.67748 10.0143 6.7185 10.0554C6.75953 10.0964 6.81517 10.1194 6.87318 10.1194H7.31068C7.3687 10.1194 7.42434 10.0964 7.46536 10.0554C7.50639 10.0143 7.52943 9.95869 7.52943 9.90067V9.3888C7.88884 9.33598 8.22656 9.18454 8.50506 8.9513C8.64597 8.82956 8.75826 8.6782 8.83389 8.50803C8.90952 8.33787 8.94662 8.1531 8.94256 7.96692C8.94261 7.66851 8.83012 7.38105 8.62756 7.16192ZM6.63256 6.28692L6.53631 6.2038C6.50292 6.16645 6.47722 6.12288 6.46071 6.07558C6.44419 6.02828 6.43717 5.97819 6.44006 5.92817C6.43894 5.88106 6.44955 5.8344 6.47093 5.7924C6.49231 5.75039 6.5238 5.71436 6.56256 5.68755C6.5884 5.66471 6.61621 5.64421 6.64568 5.6263L6.63256 6.28692ZM7.50756 8.36942V7.70442C7.55657 7.73251 7.60209 7.76629 7.64318 7.80505C7.67617 7.83354 7.70204 7.86934 7.71875 7.90959C7.73546 7.94985 7.74254 7.99345 7.73943 8.03692C7.75693 8.1113 7.75693 8.25567 7.52506 8.36505L7.50756 8.36942Z" fill="#A5C3DC"/>
<path d="M8.53997 7.07867C8.25993 6.81296 7.92341 6.61403 7.5556 6.4968L7.43747 6.45305V5.6043C7.6997 5.64558 7.9565 5.71601 8.2031 5.8143C8.23008 5.82484 8.25889 5.82991 8.28785 5.82923C8.31681 5.82854 8.34535 5.82211 8.37181 5.81031C8.39826 5.7985 8.42211 5.78156 8.44197 5.76047C8.46182 5.73937 8.47729 5.71454 8.48747 5.68742L8.74997 5.06617C8.77059 5.01267 8.76982 4.95329 8.74783 4.90034C8.72583 4.84739 8.6843 4.80494 8.63185 4.7818C8.25492 4.62726 7.85655 4.53136 7.4506 4.49742V4.13867C7.4506 4.08066 7.42755 4.02502 7.38653 3.98399C7.3455 3.94297 7.28986 3.91992 7.23185 3.91992H6.79435C6.73633 3.91992 6.68069 3.94297 6.63967 3.98399C6.59864 4.02502 6.5756 4.08066 6.5756 4.13867V4.52367C6.24046 4.57331 5.92392 4.70897 5.65685 4.91742C5.51715 5.03058 5.40513 5.17413 5.32931 5.33714C5.2535 5.50014 5.21589 5.6783 5.21935 5.85805C5.21282 6.17782 5.32328 6.48897 5.52997 6.73305C5.78039 6.99843 6.09322 7.19695 6.43997 7.31055L6.58435 7.36305V8.23805C6.4368 8.22243 6.29058 8.19611 6.14685 8.1593C5.92542 8.10706 5.70992 8.0323 5.50372 7.93617C5.4718 7.91774 5.43558 7.90804 5.39872 7.90804C5.36186 7.90804 5.32565 7.91774 5.29372 7.93617C5.26182 7.9551 5.23537 7.98198 5.21697 8.01419C5.19856 8.04639 5.18883 8.08283 5.18872 8.11992V8.8418C5.18912 8.88437 5.20169 8.92594 5.22494 8.9616C5.2482 8.99726 5.28117 9.02552 5.31997 9.04305C5.71956 9.21068 6.1468 9.30266 6.57997 9.3143V9.82617C6.57997 9.88419 6.60302 9.93983 6.64404 9.98085C6.68506 10.0219 6.7407 10.0449 6.79872 10.0449H7.23622C7.29424 10.0449 7.34988 10.0219 7.3909 9.98085C7.43192 9.93983 7.45497 9.88419 7.45497 9.82617V9.30555C7.8139 9.25561 8.15098 9.10378 8.42622 8.86805C8.56656 8.74678 8.6785 8.59613 8.75411 8.42677C8.82972 8.25741 8.86714 8.07349 8.86372 7.88805C8.86035 7.58735 8.7449 7.29874 8.53997 7.07867ZM6.54497 6.20367C6.50995 6.18123 6.47765 6.1548 6.44872 6.12492C6.41457 6.08719 6.38844 6.04291 6.3719 5.99479C6.35535 5.94666 6.34874 5.89568 6.35247 5.84492C6.35058 5.79968 6.35951 5.75464 6.37854 5.71355C6.39756 5.67245 6.42612 5.6365 6.46185 5.60867C6.48687 5.58484 6.5148 5.56427 6.54497 5.54742V6.20367ZM7.41997 8.28617V7.62117C7.46823 7.65039 7.51364 7.68408 7.5556 7.7218C7.58791 7.75176 7.61327 7.78844 7.6299 7.82925C7.64653 7.87007 7.65402 7.91403 7.65185 7.95805C7.65592 8.02793 7.63723 8.09726 7.59858 8.15563C7.55993 8.214 7.5034 8.25827 7.43747 8.2818L7.41997 8.28617Z" fill="#FAA037"/>
</g>
<defs>
<clipPath id="clip0_2238_617">
<rect width="14" height="14" fill="white"/>
</clipPath>
</defs>
</svg>
