<svg width="23" height="23" viewBox="0 0 23 23" fill="none" xmlns="http://www.w3.org/2000/svg">
<g clip-path="url(#clip0_571_284)">
<path d="M17.0008 17.3342H16.8569C16.6871 16.5077 16.3883 15.7476 15.9603 15.0539C15.5322 14.3602 15.012 13.7625 14.3995 13.2606C13.787 12.7588 13.097 12.3677 12.3295 12.0873C11.562 11.8069 10.7577 11.6667 9.9164 11.6667C9.267 11.6667 8.63974 11.7515 8.03462 11.9213C7.42949 12.091 6.86496 12.3271 6.34101 12.6297C5.81706 12.9323 5.34108 13.3012 4.91306 13.7366C4.48505 14.172 4.11607 14.6517 3.80613 15.1756C3.49619 15.6996 3.25635 16.2641 3.08662 16.8693C2.91689 17.4744 2.83203 18.1016 2.83203 18.751H1.41515C1.41515 17.8655 1.5443 17.0132 1.80258 16.194C2.06086 15.3749 2.43353 14.6185 2.92058 13.9248C3.40763 13.2311 3.98324 12.6149 4.6474 12.0762C5.31156 11.5375 6.06427 11.1132 6.90554 10.8033C6.07165 10.2572 5.42225 9.57087 4.95734 8.74436C4.49243 7.91785 4.25628 7.00278 4.2489 5.99917C4.2489 5.21693 4.39649 4.48267 4.69168 3.79637C4.98686 3.11007 5.38905 2.50863 5.89823 1.99207C6.40742 1.4755 7.00886 1.06962 7.70254 0.774438C8.39621 0.479256 9.13417 0.331665 9.9164 0.331665C10.6986 0.331665 11.4329 0.479256 12.1192 0.774438C12.8055 1.06962 13.4069 1.47181 13.9235 1.981C14.4401 2.49019 14.8459 3.09162 15.1411 3.7853C15.4363 4.47898 15.5839 5.21693 15.5839 5.99917C15.5839 6.48622 15.5249 6.9622 15.4068 7.42711C15.2887 7.89202 15.1116 8.33111 14.8755 8.74436C14.6393 9.15762 14.3626 9.53766 14.0453 9.8845C13.7279 10.2313 13.3553 10.5376 12.9273 10.8033C13.7538 11.1206 14.5139 11.556 15.2075 12.1094C15.9012 12.6629 16.499 13.3123 17.0008 14.0576V17.3342ZM5.66578 5.99917C5.66578 6.58953 5.77647 7.13931 5.99786 7.6485C6.21925 8.15769 6.52181 8.60784 6.90554 8.99895C7.28928 9.39007 7.73943 9.69632 8.256 9.91771C8.77257 10.1391 9.32604 10.2498 9.9164 10.2498C10.4994 10.2498 11.0492 10.1391 11.5657 9.91771C12.0823 9.69632 12.5325 9.39376 12.9162 9.01002C13.2999 8.62629 13.6062 8.17613 13.8349 7.65957C14.0637 7.143 14.1744 6.58953 14.167 5.99917C14.167 5.41618 14.0563 4.8664 13.8349 4.34983C13.6136 3.83327 13.311 3.38311 12.9273 2.99938C12.5435 2.61564 12.0897 2.30939 11.5657 2.08062C11.0418 1.85185 10.492 1.74116 9.9164 1.74854C9.32604 1.74854 8.77626 1.85923 8.26707 2.08062C7.75788 2.30201 7.30773 2.60457 6.91661 2.98831C6.5255 3.37204 6.21925 3.82589 5.99786 4.34983C5.77647 4.87378 5.66578 5.42356 5.66578 5.99917ZM19.8345 18.751H22.6683V20.1679H19.8345V23.0017H18.4177V20.1679H15.5839V18.751H18.4177V15.9173H19.8345V18.751Z" fill="#4979D1"/>
</g>
<defs>
<clipPath id="clip0_571_284">
<rect width="22.67" height="22.67" fill="white" transform="translate(-0.00172043 0.331665)"/>
</clipPath>
</defs>
</svg>
