<svg width="22" height="22" viewBox="0 0 22 22" fill="none" xmlns="http://www.w3.org/2000/svg">
<path d="M2.19996 7.70001C2.20077 6.72565 2.4173 5.76355 2.83402 4.88279C3.25073 4.00203 3.85729 3.22447 4.61014 2.60592C5.36299 1.98737 6.24346 1.54319 7.18833 1.30526C8.1332 1.06734 9.11902 1.04157 10.075 1.22981C11.031 1.41805 11.9335 1.81562 12.7176 2.39399C13.5018 2.97237 14.1481 3.71718 14.6103 4.57497C15.0725 5.43275 15.339 6.38222 15.3907 7.35521C15.4424 8.3282 15.278 9.30057 14.9094 10.2025C14.8562 10.23 14.8037 10.259 14.7521 10.2894L14.6146 10.3719C14.5291 10.423 14.4314 10.45 14.3319 10.45H13.1681C13.0685 10.45 12.9708 10.423 12.8854 10.3719L12.7479 10.2894C12.1832 9.95067 11.5158 9.82577 10.8669 9.93741L10.0177 10.0848C9.49624 10.1744 9.00399 10.3881 8.58244 10.7078C8.16088 11.0275 7.82238 11.4439 7.59547 11.9218L6.63847 13.9381C6.24171 13.8003 5.859 13.625 5.49557 13.4145L2.92376 14.2725C2.82875 14.3042 2.72687 14.3094 2.62913 14.2875C2.53139 14.2655 2.4415 14.2173 2.36916 14.148C2.29681 14.0787 2.24477 13.991 2.21863 13.8943C2.1925 13.7976 2.19327 13.6956 2.22086 13.5993L3.00406 10.8592C2.47609 9.88994 2.19962 8.80375 2.19996 7.70001ZM6.59997 6.60001C6.59997 6.74588 6.65791 6.88577 6.76106 6.98892C6.8642 7.09206 7.0041 7.15001 7.14997 7.15001H10.45C10.5958 7.15001 10.7357 7.09206 10.8389 6.98892C10.942 6.88577 11 6.74588 11 6.60001C11 6.45414 10.942 6.31425 10.8389 6.2111C10.7357 6.10795 10.5958 6.05001 10.45 6.05001H7.14997C7.0041 6.05001 6.8642 6.10795 6.76106 6.2111C6.65791 6.31425 6.59997 6.45414 6.59997 6.60001ZM7.14997 8.25001C7.0041 8.25001 6.8642 8.30796 6.76106 8.4111C6.65791 8.51425 6.59997 8.65414 6.59997 8.80001C6.59997 8.94588 6.65791 9.08577 6.76106 9.18892C6.8642 9.29206 7.0041 9.35001 7.14997 9.35001H9.34997C9.49584 9.35001 9.63573 9.29206 9.73888 9.18892C9.84202 9.08577 9.89997 8.94588 9.89997 8.80001C9.89997 8.65414 9.84202 8.51425 9.73888 8.4111C9.63573 8.30796 9.49584 8.25001 9.34997 8.25001H7.14997ZM16.445 11.022C16.056 10.9553 15.6559 11.0302 15.3175 11.2332L15.18 11.3157C14.924 11.4689 14.6313 11.5499 14.333 11.55H13.167C12.8686 11.5499 12.5759 11.4689 12.32 11.3157L12.1825 11.2332C11.8437 11.03 11.4432 10.955 11.0539 11.022L10.2036 11.1683C9.85607 11.2283 9.52808 11.3709 9.24724 11.5842C8.9664 11.7974 8.74095 12.0751 8.58987 12.3937L7.26987 15.1734C6.65387 16.4824 6.51417 17.5769 6.64507 18.4745C6.74829 19.2091 7.06151 19.8981 7.54707 20.4589C7.84627 20.8065 8.26207 20.9385 8.65807 20.8956C9.04576 20.8469 9.40045 20.6527 9.65027 20.3522L10.5501 19.2852C10.705 19.1018 10.898 18.9545 11.1157 18.8534C11.3335 18.7523 11.5706 18.7 11.8107 18.7H15.6893C15.9294 18.7001 16.1666 18.7526 16.3843 18.8539C16.6021 18.9552 16.7951 19.1027 16.9499 19.2863L17.8497 20.3522C18.1027 20.6514 18.458 20.8538 18.8419 20.8956C19.239 20.9396 19.6537 20.8065 19.9529 20.4589C20.3291 20.0244 20.7229 19.371 20.8549 18.4745C20.9869 17.578 20.8461 16.4813 20.229 15.1745L18.9101 12.3937C18.759 12.0751 18.5335 11.7974 18.2527 11.5842C17.9719 11.3709 17.6439 11.2283 17.2964 11.1683L16.445 11.022ZM13.75 15.4C13.5312 15.4 13.3213 15.3131 13.1666 15.1584C13.0119 15.0037 12.925 14.7938 12.925 14.575C12.925 14.3562 13.0119 14.1464 13.1666 13.9916C13.3213 13.8369 13.5312 13.75 13.75 13.75C13.9688 13.75 14.1786 13.8369 14.3333 13.9916C14.488 14.1464 14.575 14.3562 14.575 14.575C14.575 14.7938 14.488 15.0037 14.3333 15.1584C14.1786 15.3131 13.9688 15.4 13.75 15.4Z" fill="#487BFF"/>
</svg>
