<svg width="20" height="23" viewBox="0 0 20 23" fill="none" xmlns="http://www.w3.org/2000/svg">
<path d="M0.599991 8.8592C0.599991 5.15467 0.599991 3.30187 1.69332 2.15093C2.78666 1 4.54666 1 8.06666 1H11.2667C14.7867 1 16.5467 1 17.64 2.152C18.7333 3.3008 18.7333 5.1536 18.7333 8.85813V14.4731C18.7333 18.1776 18.7333 20.0304 17.64 21.1813C16.5467 22.3323 14.7867 22.3333 11.2667 22.3333H8.06666C4.54666 22.3333 2.78666 22.3333 1.69332 21.1813C0.599991 20.0325 0.599991 18.1797 0.599991 14.4752V8.8592Z" stroke="#4979D1" stroke-linecap="round" stroke-linejoin="round"/>
<path d="M5.40004 1L5.48751 1.52587C5.70084 2.80267 5.80751 3.4416 6.25551 3.82133C6.70137 4.2 7.34884 4.2 8.64377 4.2H10.6886C11.9824 4.2 12.6299 4.2 13.0779 3.82133C13.5259 3.4416 13.6326 2.80267 13.8448 1.52587L13.9334 1M5.40004 15.9333H9.66671M5.40004 10.6H13.9334" stroke="#4979D1" stroke-linecap="round" stroke-linejoin="round"/>
</svg>
