<svg width="35" height="35" viewBox="0 0 35 35" fill="none" xmlns="http://www.w3.org/2000/svg">
<g clip-path="url(#clip0_2214_3830)">
<path d="M17.5 8.02075C18.8537 8.02075 20.152 8.55851 21.1092 9.51573C22.0664 10.4729 22.6042 11.7712 22.6042 13.1249C22.6042 14.4786 22.0664 15.7769 21.1092 16.7341C20.152 17.6913 18.8537 18.2291 17.5 18.2291C16.1463 18.2291 14.848 17.6913 13.8908 16.7341C12.9336 15.7769 12.3958 14.4786 12.3958 13.1249C12.3958 11.7712 12.9336 10.4729 13.8908 9.51573C14.848 8.55851 16.1463 8.02075 17.5 8.02075ZM7.29167 11.6666C8.10833 11.6666 8.86667 11.8853 9.52292 12.2791C9.30417 14.3645 9.91667 16.4353 11.1708 18.0541C10.4417 19.4541 8.98333 20.4166 7.29167 20.4166C6.13134 20.4166 5.01855 19.9557 4.19807 19.1352C3.3776 18.3147 2.91667 17.2019 2.91667 16.0416C2.91667 14.8813 3.3776 13.7685 4.19807 12.948C5.01855 12.1275 6.13134 11.6666 7.29167 11.6666ZM27.7083 11.6666C28.8687 11.6666 29.9815 12.1275 30.8019 12.948C31.6224 13.7685 32.0833 14.8813 32.0833 16.0416C32.0833 17.2019 31.6224 18.3147 30.8019 19.1352C29.9815 19.9557 28.8687 20.4166 27.7083 20.4166C26.0167 20.4166 24.5583 19.4541 23.8292 18.0541C25.1001 16.4123 25.6902 14.3443 25.4771 12.2791C26.1333 11.8853 26.8917 11.6666 27.7083 11.6666ZM8.02083 26.6145C8.02083 23.5958 12.2646 21.1458 17.5 21.1458C22.7354 21.1458 26.9792 23.5958 26.9792 26.6145V29.1666H8.02083V26.6145ZM0 29.1666V26.9791C0 24.952 2.75625 23.2458 6.48958 22.7499C5.62917 23.7416 5.10417 25.1124 5.10417 26.6145V29.1666H0ZM35 29.1666H29.8958V26.6145C29.8958 25.1124 29.3708 23.7416 28.5104 22.7499C32.2438 23.2458 35 24.952 35 26.9791V29.1666Z" fill="#487BFF"/>
</g>
<defs>
<clipPath id="clip0_2214_3830">
<rect width="35" height="35" fill="white"/>
</clipPath>
</defs>
</svg>
