<svg width="22" height="22" viewBox="0 0 22 22" fill="none" xmlns="http://www.w3.org/2000/svg">
<path d="M14.0002 15.1111C13.2895 15.6644 12.3559 16 11.3335 16C10.311 16 9.37753 15.6644 8.66684 15.1111" stroke="#F5F5F5" stroke-linecap="round"/>
<path d="M2.75696 11.7453C2.44316 9.70328 2.28626 8.68233 2.67232 7.77722C3.05836 6.8721 3.91486 6.25282 5.62785 5.01427L6.90771 4.08888C9.03865 2.54814 10.1041 1.77777 11.3335 1.77777C12.5629 1.77777 13.6284 2.54814 15.7593 4.08888L17.0391 5.01427C18.7522 6.25282 19.6086 6.8721 19.9947 7.77722C20.3807 8.68233 20.2238 9.70328 19.9101 11.7453L19.6425 13.4866C19.1976 16.3812 18.9752 17.8286 17.9371 18.6921C16.8989 19.5555 15.3812 19.5555 12.3458 19.5555H10.3212C7.2858 19.5555 5.76809 19.5555 4.72994 18.6921C3.6918 17.8286 3.46938 16.3812 3.02455 13.4866L2.75696 11.7453Z" stroke="#F5F5F5" stroke-linejoin="round"/>
</svg>
