<svg width="45" height="46" viewBox="0 0 45 46" fill="none" xmlns="http://www.w3.org/2000/svg">
<path d="M24.1578 2C26.5212 2.00391 27.7189 2.01642 28.7538 2.04723L29.1614 2.06055C29.6323 2.07728 30.0968 2.09828 30.6569 2.12453C32.8916 2.2278 34.416 2.5813 35.7548 3.10107C37.139 3.63485 38.3081 4.35587 39.4753 5.52317C40.6409 6.69046 41.362 7.86299 41.8976 9.24379C42.4154 10.5808 42.7691 12.1069 42.8741 14.3417C42.8991 14.9018 42.9192 15.3663 42.9358 15.8372L42.9491 16.2448C42.9797 17.2796 42.9938 18.4775 42.9982 20.841L42.9999 22.4068C43.0001 22.5981 43.0001 22.7955 43.0001 22.9992L42.9999 23.5917L42.9986 25.1577C42.9946 27.5211 42.9823 28.719 42.9514 29.7537L42.9379 30.1613C42.9213 30.6324 42.9003 31.0969 42.8741 31.6568C42.7708 33.8917 42.4154 35.4159 41.8976 36.7547C41.3637 38.1391 40.6409 39.3082 39.4753 40.4754C38.3081 41.641 37.1337 42.3619 35.7548 42.8975C34.416 43.4156 32.8916 43.769 30.6569 43.874C30.0968 43.899 29.6323 43.9194 29.1614 43.9357L28.7538 43.949C27.7189 43.9798 26.5212 43.9937 24.1578 43.9983L22.5918 44C22.4004 44 22.203 44 21.9993 44H21.4069L19.8409 43.9985C17.4775 43.9948 16.2796 43.9822 15.2448 43.9513L14.8372 43.938C14.3663 43.9212 13.9017 43.9002 13.3417 43.874C11.1069 43.7709 9.58434 43.4156 8.24379 42.8975C6.86123 42.3638 5.69044 41.641 4.52315 40.4754C3.35587 39.3082 2.63659 38.1339 2.10107 36.7547C1.5813 35.4159 1.22954 33.8917 1.12453 31.6568C1.09959 31.0969 1.07924 30.6324 1.06275 30.1613L1.04954 29.7537C1.01882 28.719 1.00481 27.5211 1.00027 25.1577L1 20.841C1.00391 18.4775 1.0164 17.2796 1.04721 16.2448L1.06055 15.8372C1.07728 15.3663 1.09828 14.9018 1.12453 14.3417C1.22777 12.1051 1.5813 10.5826 2.10107 9.24379C2.63483 7.86125 3.35587 6.69046 4.52315 5.52317C5.69044 4.35587 6.86299 3.63659 8.24379 3.10107C9.58259 2.5813 11.1051 2.22954 13.3417 2.12453C13.9017 2.09961 14.3663 2.07926 14.8372 2.06277L15.2448 2.04956C16.2796 2.01882 17.4775 2.00481 19.8409 2.00027L24.1578 2ZM21.9993 12.4989C16.197 12.4989 11.4989 17.2021 11.4989 22.9992C11.4989 28.8015 16.2021 33.4996 21.9993 33.4996C27.8016 33.4996 32.4997 28.7965 32.4997 22.9992C32.4997 17.197 27.7964 12.4989 21.9993 12.4989ZM21.9993 16.6991C25.479 16.6991 28.2996 19.5188 28.2996 22.9992C28.2996 26.4788 25.4798 29.2995 21.9993 29.2995C18.5197 29.2995 15.6991 26.4799 15.6991 22.9992C15.6991 19.5196 18.5187 16.6991 21.9993 16.6991ZM33.0247 9.3488C31.5772 9.3488 30.3996 10.5247 30.3996 11.9721C30.3996 13.4196 31.5755 14.5972 33.0247 14.5972C34.4721 14.5972 35.6498 13.4214 35.6498 11.9721C35.6498 10.5247 34.4702 9.34699 33.0247 9.3488Z" fill="#487BFF"/>
</svg>
