<svg width="35" height="35" viewBox="0 0 35 35" fill="none" xmlns="http://www.w3.org/2000/svg">
<g clip-path="url(#clip0_2214_3827)">
<path d="M27.7083 24.7917V27.7084H10.2083V24.7917C10.2083 24.7917 10.2083 18.9584 18.9583 18.9584C27.7083 18.9584 27.7083 24.7917 27.7083 24.7917ZM23.3333 11.6667C23.3333 10.8015 23.0767 9.9556 22.596 9.23613C22.1153 8.51666 21.432 7.95591 20.6326 7.62478C19.8331 7.29364 18.9535 7.207 18.1048 7.37581C17.2561 7.54462 16.4766 7.9613 15.8647 8.57316C15.2529 9.18501 14.8362 9.96456 14.6674 10.8132C14.4986 11.6619 14.5852 12.5416 14.9164 13.341C15.2475 14.1404 15.8082 14.8237 16.5277 15.3044C17.2472 15.7852 18.093 16.0417 18.9583 16.0417C20.1187 16.0417 21.2315 15.5808 22.0519 14.7603C22.8724 13.9399 23.3333 12.8271 23.3333 11.6667ZM28 19.0459C28.7972 19.7814 29.4399 20.6682 29.8906 21.6547C30.3413 22.6413 30.5909 23.7077 30.625 24.7917V27.7084H35V24.7917C35 24.7917 35 19.7605 28 19.0459ZM26.25 7.29175C25.8094 7.29178 25.3714 7.36066 24.9521 7.49592C25.8053 8.71941 26.2627 10.1751 26.2627 11.6667C26.2627 13.1584 25.8053 14.6141 24.9521 15.8376C25.3714 15.9728 25.8094 16.0417 26.25 16.0417C27.4103 16.0417 28.5231 15.5808 29.3436 14.7603C30.1641 13.9399 30.625 12.8271 30.625 11.6667C30.625 10.5064 30.1641 9.39363 29.3436 8.57316C28.5231 7.75269 27.4103 7.29175 26.25 7.29175ZM11.6667 14.5834H7.29167V10.2084H4.375V14.5834H0V17.5001H4.375V21.8751H7.29167V17.5001H11.6667V14.5834Z" fill="#487BFF"/>
</g>
<defs>
<clipPath id="clip0_2214_3827">
<rect width="35" height="35" fill="white"/>
</clipPath>
</defs>
</svg>
