<svg width="35" height="36" viewBox="0 0 35 36" fill="none" xmlns="http://www.w3.org/2000/svg">
<path d="M26.8189 6.09825C27.4951 6.09946 28.1433 6.36831 28.6219 6.84604C29.1005 7.32376 29.3705 7.97151 29.3729 8.64772V32.9505C29.3705 33.6267 29.1005 34.2745 28.6219 34.7522C28.1433 35.2299 27.4951 35.4988 26.8189 35.5H8.18103C7.50481 35.4988 6.85657 35.2299 6.37799 34.7522C5.8994 34.2745 5.62938 33.6267 5.62695 32.9505V8.64772C5.62938 7.97151 5.8994 7.32376 6.37799 6.84604C6.85657 6.36831 7.50481 6.09946 8.18103 6.09825H9.13593V8.64772H8.18333L8.17873 8.65232V32.9459L8.18333 32.9505H26.8166L26.8212 32.9459V8.65232L26.8166 8.64772H25.864V6.09825H26.8189ZM24.5639 15.477H10.1829V18.0265H24.5639V15.477ZM24.5639 20.8543H10.1829V23.4038H24.5639V20.8543ZM24.5639 26.2317H10.1829V28.7812H24.5639V26.2317ZM23.3145 5.67257V8.54878C23.3145 8.83886 23.1994 9.1171 22.9945 9.32243C22.7896 9.52777 22.5116 9.64343 22.2215 9.64404H12.7784C12.4887 9.64343 12.211 9.52809 12.0062 9.32325C11.8014 9.11841 11.686 8.84076 11.6854 8.55108V5.67487C11.6854 5.38479 11.8005 5.10655 12.0054 4.90122C12.2103 4.69588 12.4883 4.58022 12.7784 4.57961H14.3821V1.59296C14.3827 1.30328 14.4981 1.02563 14.7029 0.820792C14.9078 0.615954 15.1854 0.500608 15.4751 0.5H19.5248C19.8145 0.500608 20.0921 0.615954 20.297 0.820792C20.5018 1.02563 20.6171 1.30328 20.6177 1.59296V4.58422H22.2215C22.5108 4.58482 22.7881 4.69985 22.9929 4.90419C23.1977 5.10853 23.3133 5.38559 23.3145 5.67487V5.67257ZM18.7655 3.43373C18.7655 3.18161 18.6907 2.93516 18.5506 2.72553C18.4106 2.5159 18.2115 2.35251 17.9786 2.25603C17.7456 2.15955 17.4893 2.1343 17.242 2.18349C16.9948 2.23268 16.7676 2.35408 16.5894 2.53236C16.4111 2.71063 16.2897 2.93777 16.2405 3.18504C16.1913 3.43232 16.2166 3.68862 16.313 3.92155C16.4095 4.15448 16.5729 4.35357 16.7825 4.49364C16.9922 4.63371 17.2386 4.70847 17.4907 4.70847C17.8288 4.70847 18.1531 4.57416 18.3921 4.33511C18.6312 4.09605 18.7655 3.77181 18.7655 3.43373Z" fill="#487BFF"/>
</svg>
