<svg width="22" height="22" viewBox="0 0 22 22" fill="none" xmlns="http://www.w3.org/2000/svg">
<path d="M15.3952 18.3705V13.6297M16.7824 13.6297V12.4445M16.7824 19.5556V18.3705M15.3952 16.0001H18.1696M18.1696 16.0001C18.6293 16.0001 19.0019 16.398 19.0019 16.889V17.4816C19.0019 17.9725 18.6293 18.3705 18.1696 18.3705H14.5628M18.1696 16.0001C18.6293 16.0001 19.0019 15.6021 19.0019 15.1112V14.5186C19.0019 14.0276 18.6293 13.6297 18.1696 13.6297H14.5628" stroke="#4979D1" stroke-linecap="round" stroke-linejoin="round"/>
<path d="M13.3961 3.72102C12.1512 2.9463 8.95623 1.45923 6.07822 1.83879C7.81912 3.05657 8.73497 3.71156 11.2056 5.94583M16.8376 7.21654C17.1682 7.76461 17.7215 8.82567 18.1088 9.93058M14.6472 9.44133C14.8621 9.68649 15.1235 10.055 15.3107 10.2724M9.53782 9.2608L3.36862 15.5269C2.8682 16.0352 2.87572 16.8668 3.3854 17.3845C3.89509 17.9022 4.71393 17.9099 5.21435 17.4016L11.3836 11.1356M10.8626 7.31177L13.3023 9.78978C13.5732 10.0649 14.0114 10.066 14.2811 9.792L17.3036 6.72204C17.5733 6.44813 17.5723 6.00303 17.3014 5.72787L14.8617 3.2499C14.5908 2.97475 14.1526 2.97373 13.8829 3.24764L10.8604 6.31761C10.5907 6.59151 10.5917 7.03661 10.8626 7.31177Z" stroke="#4979D1" stroke-linecap="round" stroke-linejoin="round"/>
</svg>
