<svg width="35" height="37" viewBox="0 0 35 37" fill="none" xmlns="http://www.w3.org/2000/svg">
<path d="M9.1 10.5C10.4924 10.5 11.8277 9.94688 12.8123 8.96231C13.7969 7.97775 14.35 6.64239 14.35 5.25C14.35 3.85761 13.7969 2.52226 12.8123 1.53769C11.8277 0.553123 10.4924 0 9.1 0C7.70761 0 6.37226 0.553123 5.38769 1.53769C4.40312 2.52226 3.85 3.85761 3.85 5.25C3.85 6.64239 4.40312 7.97775 5.38769 8.96231C6.37226 9.94688 7.70761 10.5 9.1 10.5ZM0 15.3748C0 13.8418 1.2418 12.6 2.7748 12.6H10.6148C10.0012 14.148 9.99076 15.8698 10.5854 17.4252C11.1801 18.9805 12.3366 20.2562 13.8264 21H10.4762C9.64872 20.9995 8.83979 21.2451 8.15224 21.7055C7.4647 22.166 6.92961 22.8205 6.615 23.5858C3.808 23.0664 2.1252 21.665 1.1634 20.0998C1.85437e-07 18.214 0 16.2652 0 15.9292V15.3748ZM22.05 15.05C22.05 16.1028 21.7406 17.0828 21.2072 17.906C20.1056 18.4567 19.1095 19.1969 18.2644 20.0928C17.2065 20.4001 16.0788 20.3668 15.0409 19.9977C14.003 19.6286 13.1075 18.9424 12.4812 18.0362C11.8548 17.13 11.5294 16.0497 11.551 14.9483C11.5726 13.847 11.9401 12.7803 12.6014 11.8993C13.2627 11.0183 14.1844 10.3677 15.236 10.0395C16.2876 9.71138 17.4157 9.7223 18.4607 10.0708C19.5058 10.4192 20.4147 11.0876 21.0589 11.9812C21.703 12.8748 22.0498 13.9484 22.05 15.05ZM10.4748 22.4H16.611C15.8149 23.9106 15.3992 25.5925 15.4 27.3C15.4 29.6576 16.177 31.8332 17.4888 33.586C17.2648 33.5953 17.0352 33.6 16.8 33.6C12.4516 33.6 10.08 31.8808 8.862 29.9012C7.7 28.0126 7.7 26.0652 7.7 25.7278V25.1748C7.7 23.6418 8.9418 22.4 10.4748 22.4ZM33.6 15.9278C33.6 16.2218 33.6 17.7548 32.8174 19.3998C30.9048 17.7203 28.4453 16.7959 25.9 16.8C24.9312 16.8 23.9932 16.9316 23.1028 17.178C23.6028 15.6855 23.5606 14.0645 22.9838 12.6H30.8238C32.3582 12.6 33.6 13.8418 33.6 15.3748V15.9278ZM29.75 5.25C29.75 6.64239 29.1969 7.97775 28.2123 8.96231C27.2277 9.94688 25.8924 10.5 24.5 10.5C23.1076 10.5 21.7723 9.94688 20.7877 8.96231C19.8031 7.97775 19.25 6.64239 19.25 5.25C19.25 3.85761 19.8031 2.52226 20.7877 1.53769C21.7723 0.553123 23.1076 0 24.5 0C25.8924 0 27.2277 0.553123 28.2123 1.53769C29.1969 2.52226 29.75 3.85761 29.75 5.25ZM35 27.3C35 29.7135 34.0413 32.0281 32.3347 33.7347C30.6281 35.4413 28.3135 36.4 25.9 36.4C23.4865 36.4 21.1719 35.4413 19.4653 33.7347C17.7587 32.0281 16.8 29.7135 16.8 27.3C16.8 24.8865 17.7587 22.5719 19.4653 20.8653C21.1719 19.1588 23.4865 18.2 25.9 18.2C28.3135 18.2 30.6281 19.1588 32.3347 20.8653C34.0413 22.5719 35 24.8865 35 27.3ZM26.6 21.7C26.6 21.5144 26.5263 21.3363 26.395 21.205C26.2637 21.0738 26.0857 21 25.9 21C25.7143 21 25.5363 21.0738 25.405 21.205C25.2737 21.3363 25.2 21.5144 25.2 21.7V26.6H20.3C20.1143 26.6 19.9363 26.6738 19.805 26.805C19.6737 26.9363 19.6 27.1144 19.6 27.3C19.6 27.4857 19.6737 27.6637 19.805 27.795C19.9363 27.9263 20.1143 28 20.3 28H25.2V32.9C25.2 33.0857 25.2737 33.2637 25.405 33.395C25.5363 33.5263 25.7143 33.6 25.9 33.6C26.0857 33.6 26.2637 33.5263 26.395 33.395C26.5263 33.2637 26.6 33.0857 26.6 32.9V28H31.5C31.6857 28 31.8637 27.9263 31.995 27.795C32.1263 27.6637 32.2 27.4857 32.2 27.3C32.2 27.1144 32.1263 26.9363 31.995 26.805C31.8637 26.6738 31.6857 26.6 31.5 26.6H26.6V21.7Z" fill="#487BFF"/>
</svg>
