<svg width="430" height="541" viewBox="0 0 430 541" fill="none" xmlns="http://www.w3.org/2000/svg">
<g filter="url(#filter0_bi_2214_5286)">
<path fill-rule="evenodd" clip-rule="evenodd" d="M368.998 208.499C370.582 208.337 371.879 207.053 372.527 203.675C373.175 200.296 372.311 199.232 370.726 199.394L346.532 201.858C344.516 202.064 343.58 203.311 343.22 205.436L334.579 250.528C334.219 252.653 334.723 253.754 336.74 253.548L361.294 251.047C362.878 250.886 364.174 249.601 364.822 246.223C365.398 242.852 364.606 241.781 363.022 241.942L346.244 243.651L348.693 230.585L363.31 229.096C364.894 228.934 366.19 227.65 366.838 224.272C367.486 220.894 366.622 219.83 365.038 219.991L350.421 221.48L352.581 210.171L368.998 208.499ZM324.79 213.002L334.799 211.982C336.383 211.821 337.679 210.537 338.327 207.158C338.975 203.78 338.111 202.716 336.527 202.877L305.996 205.987C304.412 206.149 303.116 207.433 302.468 210.811C301.82 214.19 302.684 215.254 304.268 215.092L314.277 214.073L306.644 254.166C306.284 255.93 307.436 257.109 311.325 256.713C315.213 256.317 316.797 254.86 317.157 253.095L324.79 213.002ZM272.157 260.991C281.878 260.001 291.022 252.733 293.039 242.302L296.783 222.623C298.799 212.193 292.102 206.539 282.382 207.529C272.661 208.519 263.516 215.787 261.5 226.217L257.755 245.897C255.739 256.327 262.436 261.981 272.157 260.991ZM271.941 225.658C272.877 220.522 276.333 217.074 280.653 216.634C284.974 216.194 287.134 219.07 286.198 224.206L282.598 242.862C281.662 247.998 278.205 251.446 273.885 251.886C269.565 252.326 267.404 249.45 268.34 244.314L271.941 225.658ZM242.134 263.761C246.022 263.365 247.606 261.908 247.966 260.143L254.303 226.951C256.319 216.52 249.623 210.866 239.83 211.863C230.037 212.861 220.892 220.129 218.876 230.559L212.539 263.752C212.179 265.516 213.331 266.695 217.22 266.299C221.108 265.903 222.692 264.446 223.052 262.681L229.317 230C230.253 224.936 233.781 221.408 238.102 220.968C242.422 220.528 244.654 223.469 243.718 228.533L237.453 261.214C237.093 262.979 238.246 264.157 242.134 263.761ZM203.254 225.382L213.263 224.363C214.847 224.201 216.143 222.917 216.791 219.539C217.439 216.16 216.575 215.096 214.991 215.258L184.46 218.368C182.876 218.529 181.58 219.813 180.932 223.192C180.284 226.57 181.148 227.634 182.732 227.473L192.741 226.453L185.108 266.546C184.748 268.311 185.9 269.489 189.789 269.093C193.677 268.697 195.261 267.24 195.621 265.475L203.254 225.382ZM158.829 229.907L175.966 228.162C177.551 228 178.847 226.716 179.495 223.338C180.143 219.96 179.279 218.896 177.695 219.057L152.78 221.595C150.764 221.8 149.828 223.048 149.468 225.172L140.683 271.071C140.323 272.836 141.475 274.015 145.364 273.619C149.252 273.223 150.836 271.765 151.196 270L154.797 251.056L169.558 249.552C171.142 249.391 172.438 248.107 173.086 244.729C173.734 241.35 172.87 240.286 171.286 240.448L156.525 241.951L158.829 229.907ZM115.197 276.98C124.918 275.989 134.062 268.721 136.079 258.291L139.823 238.612C141.839 228.182 135.142 222.527 125.422 223.518C115.701 224.508 106.556 231.776 104.54 242.206L100.796 261.885C98.7786 272.316 105.476 277.97 115.197 276.98ZM114.981 241.647C115.917 236.511 119.373 233.063 123.693 232.622C128.014 232.182 130.174 235.059 129.238 240.194L125.638 258.851C124.702 263.986 121.245 267.435 116.925 267.875C112.605 268.315 110.444 265.439 111.38 260.303L114.981 241.647ZM92.5896 244.36C96.4786 243.963 98.1346 242.499 98.4946 240.734L98.7106 239.416C100.079 232.364 94.6776 226.649 84.6696 227.669C75.4526 228.608 67.0996 234.931 65.2996 244.331C63.7876 252.118 68.1796 256.567 76.1006 258.496C83.1566 260.226 85.1016 262.116 84.3806 265.861C83.7326 269.312 80.9246 271.542 76.8206 271.96C72.9316 272.356 70.6996 270.351 71.3476 267.117V266.901C71.7076 265.136 70.6276 263.95 66.7396 264.346C62.8516 264.742 61.1946 266.207 60.8346 267.972L60.7626 268.627C59.3946 275.679 64.5076 282.143 75.1646 281.058C86.0376 279.95 93.3816 273.225 95.1096 264.121C96.7666 255.599 92.3016 251.877 84.0926 249.617C77.3246 247.787 75.4526 245.385 76.0286 242.374C76.6766 239.284 79.1966 237.155 82.9406 236.774C86.7576 236.385 88.5576 238.506 88.0536 241.437L87.9816 241.805C87.6216 243.569 88.7016 244.756 92.5896 244.36ZM238.565 327.435C242.453 327.039 244.037 325.581 244.397 323.817L253.326 277.111C253.614 275.354 252.534 274.168 248.646 274.564C244.757 274.96 243.101 276.425 242.813 278.182L239.285 296.687L226.684 297.971L230.212 279.466C230.5 277.708 229.42 276.522 225.532 276.918C221.643 277.314 219.987 278.779 219.699 280.537L210.77 327.242C210.41 329.007 211.562 330.186 215.451 329.79C219.339 329.393 220.923 327.936 221.283 326.171L224.956 307.003L237.557 305.72L233.884 324.888C233.524 326.652 234.676 327.831 238.565 327.435ZM204.437 296.276C208.325 295.88 209.982 294.416 210.342 292.651L210.558 291.333C211.926 284.281 206.525 278.566 196.516 279.586C187.3 280.525 178.947 286.848 177.147 296.248C175.635 304.035 180.027 308.484 187.948 310.413C195.004 312.143 196.948 314.033 196.228 317.778C195.58 321.229 192.772 323.459 188.668 323.877C184.779 324.273 182.547 322.268 183.195 319.034V318.818C183.555 317.053 182.475 315.867 178.587 316.263C174.699 316.659 173.042 318.124 172.682 319.889L172.61 320.544C171.242 327.596 176.355 334.06 187.012 332.975C197.885 331.867 205.229 325.142 206.957 316.037C208.614 307.516 204.149 303.794 195.94 301.534C189.172 299.704 187.3 297.302 187.876 294.291C188.524 291.201 191.044 289.072 194.788 288.691C198.605 288.302 200.405 290.423 199.901 293.354L199.829 293.722C199.469 295.486 200.549 296.673 204.437 296.276ZM100.251 290.256C98.0906 290.476 97.1546 291.795 96.7946 293.776L88.0096 339.747C87.6496 341.512 88.8016 342.691 92.6906 342.294C96.5786 341.898 98.1626 340.441 98.5226 338.676L101.763 321.785L105.94 321.359C110.836 320.86 112.78 324.623 111.052 333.872L110.332 337.473C109.972 339.238 111.124 340.417 115.013 340.021C118.901 339.625 120.485 338.167 120.845 336.402L121.997 330.38C123.365 323.112 122.429 318.239 118.325 315.849C122.717 313.098 126.174 308.641 127.182 303.066C129.198 292.492 123.581 287.879 113.933 288.862L100.251 290.256ZM116.669 304.425C115.733 309.345 112.924 311.719 108.532 312.166L103.492 312.68L106.156 298.583L111.196 298.07C115.589 297.622 117.605 299.505 116.669 304.425ZM142.876 285.338C138.987 285.734 137.331 287.199 137.043 288.956L130.707 322.149C128.69 332.579 135.387 338.233 145.18 337.236C154.973 336.238 164.117 328.97 166.134 318.54L172.47 285.348C172.758 283.59 171.678 282.404 167.79 282.8C163.901 283.196 162.245 284.661 161.957 286.418L155.693 319.099C154.757 324.163 151.228 327.691 146.908 328.131C142.588 328.571 140.355 325.63 141.291 320.566L147.556 287.885C147.844 286.128 146.764 284.942 142.876 285.338Z" fill="url(#paint0_radial_2214_5286)"/>
</g>
<path d="M263.509 316.677L271.069 276.985C271.565 274.383 273.709 272.413 276.344 272.14L334.936 266.062C338.936 265.647 342.204 269.207 341.449 273.157L333.854 312.876C333.356 315.478 331.212 317.445 328.577 317.718L270.019 323.768C266.022 324.181 262.757 320.625 263.509 316.677Z" fill="#487BFF"/>
<path fill-rule="evenodd" clip-rule="evenodd" d="M319.591 289.411C318.642 294.111 315.291 296.821 310.96 297.247L308.589 297.48L307.293 304.075C307.135 304.823 306.44 305.441 304.733 305.608C303.025 305.776 302.52 305.277 302.678 304.529L306.534 285.05C306.692 284.211 307.103 283.652 308.052 283.558L313.773 282.996C318.104 282.57 320.507 284.744 319.591 289.411ZM312.541 286.9L310.644 287.087L309.348 293.622L311.245 293.435C313.236 293.239 314.533 292.044 314.975 289.865C315.386 287.689 314.533 286.705 312.541 286.9ZM303.343 286.218C302.711 289.545 301.478 291.71 297.242 295.208C300.34 298.016 300.561 300.405 299.897 303.734L299.676 304.824C299.518 305.572 298.823 306.189 297.116 306.357C295.408 306.525 294.902 306.026 295.061 305.278L295.313 303.941C295.756 301.701 295.535 300.197 293.512 298.382C290.666 300.675 289.813 302.285 289.37 304.525L289.117 305.862C288.959 306.61 288.264 307.228 286.557 307.395C284.85 307.563 284.344 307.064 284.502 306.316L284.723 305.226C285.387 301.897 286.557 299.371 290.919 295.83C287.948 293.041 287.537 291.037 288.169 287.71L288.422 286.525C288.548 285.781 289.275 285.16 290.982 284.992C292.69 284.825 293.164 285.327 293.037 286.072L292.785 287.317C292.31 289.713 292.848 291.003 294.65 292.687C297.147 290.58 298.254 289.129 298.728 286.733L298.981 285.487C299.107 284.743 299.834 284.122 301.541 283.954C303.248 283.786 303.722 284.289 303.596 285.034L303.343 286.218Z" fill="#F7F8FA"/>
<g style="mix-blend-mode:plus-lighter" opacity="0.3" filter="url(#filter1_f_2214_5286)">
<ellipse cx="49.8056" cy="157.112" rx="49.8056" ry="157.112" transform="matrix(0.337402 0.941361 -0.988995 0.14795 356.984 200.931)" fill="#487BFF"/>
</g>
<g style="mix-blend-mode:lighten" opacity="0.15" filter="url(#filter2_f_2214_5286)">
<ellipse cx="49.8056" cy="138.36" rx="49.8056" ry="138.36" transform="matrix(0.337402 0.941361 -0.988995 0.14795 339.943 203.482)" fill="#2044FF"/>
</g>
<defs>
<filter id="filter0_bi_2214_5286" x="39.308" y="178.141" width="354.672" height="185.467" filterUnits="userSpaceOnUse" color-interpolation-filters="sRGB">
<feFlood flood-opacity="0" result="BackgroundImageFix"/>
<feGaussianBlur in="BackgroundImageFix" stdDeviation="10.6185"/>
<feComposite in2="SourceAlpha" operator="in" result="effect1_backgroundBlur_2214_5286"/>
<feBlend mode="normal" in="SourceGraphic" in2="effect1_backgroundBlur_2214_5286" result="shape"/>
<feColorMatrix in="SourceAlpha" type="matrix" values="0 0 0 0 0 0 0 0 0 0 0 0 0 0 0 0 0 0 127 0" result="hardAlpha"/>
<feOffset/>
<feGaussianBlur stdDeviation="11.5918"/>
<feComposite in2="hardAlpha" operator="arithmetic" k2="-1" k3="1"/>
<feColorMatrix type="matrix" values="0 0 0 0 0.254167 0 0 0 0 0.41825 0 0 0 0 1 0 0 0 0.24 0"/>
<feBlend mode="plus-lighter" in2="shape" result="effect2_innerShadow_2214_5286"/>
</filter>
<filter id="filter1_f_2214_5286" x="-83.7036" y="72.9123" width="604.218" height="396.298" filterUnits="userSpaceOnUse" color-interpolation-filters="sRGB">
<feFlood flood-opacity="0" result="BackgroundImageFix"/>
<feBlend mode="normal" in="SourceGraphic" in2="BackgroundImageFix" result="shape"/>
<feGaussianBlur stdDeviation="72.9032" result="effect1_foregroundBlur_2214_5286"/>
</filter>
<filter id="filter2_f_2214_5286" x="-136.679" y="0.955841" width="713.178" height="539.763" filterUnits="userSpaceOnUse" color-interpolation-filters="sRGB">
<feFlood flood-opacity="0" result="BackgroundImageFix"/>
<feBlend mode="normal" in="SourceGraphic" in2="BackgroundImageFix" result="shape"/>
<feGaussianBlur stdDeviation="109.355" result="effect1_foregroundBlur_2214_5286"/>
</filter>
<radialGradient id="paint0_radial_2214_5286" cx="0" cy="0" r="1" gradientUnits="userSpaceOnUse" gradientTransform="translate(268.368 281.918) rotate(-129.174) scale(270.425 290.374)">
<stop offset="0.143477" stop-color="#487BFF"/>
<stop offset="0.529229" stop-color="#365ACE" stop-opacity="0.68"/>
<stop offset="1" stop-color="#2D4BC5" stop-opacity="0.01"/>
</radialGradient>
</defs>
</svg>
