<svg width="20" height="24" viewBox="0 0 20 24" fill="none" xmlns="http://www.w3.org/2000/svg">
<path d="M0.767578 9.25178C0.767578 5.54724 0.767578 3.69444 1.86091 2.54351C2.95424 1.39258 4.71424 1.39258 8.23424 1.39258H11.4342C14.9542 1.39258 16.7142 1.39258 17.8076 2.54458C18.9009 3.69338 18.9009 5.54618 18.9009 9.25071V14.8656C18.9009 18.5702 18.9009 20.423 17.8076 21.5739C16.7142 22.7248 14.9542 22.7259 11.4342 22.7259H8.23424C4.71424 22.7259 2.95424 22.7259 1.86091 21.5739C0.767578 20.4251 0.767578 18.5723 0.767578 14.8678V9.25178Z" stroke="#487BFF" stroke-linecap="round" stroke-linejoin="round"/>
<path d="M5.56836 1.39258L5.65583 1.91844C5.86916 3.19524 5.97583 3.83418 6.42383 4.21391C6.86969 4.59258 7.51716 4.59258 8.81209 4.59258H10.8569C12.1508 4.59258 12.7982 4.59258 13.2462 4.21391C13.6942 3.83418 13.8009 3.19524 14.0132 1.91844L14.1017 1.39258M5.56836 16.3259H9.83503M5.56836 10.9926H14.1017" stroke="#487BFF" stroke-linecap="round" stroke-linejoin="round"/>
</svg>
