<svg width="68" height="28" viewBox="0 0 68 28" fill="none" xmlns="http://www.w3.org/2000/svg">
<path d="M55.481 6.13485C55.7223 6.13485 55.9298 5.964 55.9761 5.72721L56.6329 2.36778H65.5645L61.0158 25.6322H52.0842L52.7128 22.4173C52.7687 22.1312 52.5497 21.8652 52.2582 21.8652H50.8235C50.5822 21.8652 50.3747 22.036 50.3284 22.2728L49.6891 25.5429C49.425 26.8236 50.4132 28 51.7033 28H61.2757C62.2644 28 63.0999 27.2906 63.2903 26.3386L63.2908 26.3361L67.9597 2.45702C68.2237 1.17634 67.2355 0 65.9454 0H56.373C55.3843 0 54.5488 0.709415 54.3584 1.66143L54.3579 1.66393L53.5917 5.5827C53.5358 5.8688 53.7548 6.13485 54.0464 6.13485H55.481Z" fill="#7384AA"/>
<path d="M7.86534 8.09476C8.22529 8.09476 8.43098 8.36231 8.27672 9.12377C8.13273 9.88524 7.83448 10.1528 7.46424 10.1528H5.17081L3.42244 19.1875C3.34017 19.5888 2.98021 19.8872 2.08546 19.8872C1.19071 19.8872 0.923317 19.5682 1.00559 19.1772L2.75395 10.1425H0.460516C0.100559 10.1425 -0.10513 9.87495 0.0491367 9.11348C0.203404 8.35202 0.491369 8.08447 0.86161 8.08447H7.86534V8.09476Z" fill="#7384AA"/>
<path d="M14.7663 12.715C15.1263 12.715 15.332 12.9516 15.1777 13.7131C15.0337 14.4746 14.7355 14.7421 14.3652 14.7421H11.0125L10.4468 17.6851H14.3035C14.6635 17.6851 14.8486 17.9526 14.7149 18.7141C14.5709 19.4756 14.2727 19.7431 13.9024 19.7431H8.26652C7.80372 19.7431 7.69059 19.4756 7.77287 19.0022L9.75777 8.84587C9.84005 8.36223 10.056 8.10498 10.5188 8.10498H16.0724C16.4324 8.10498 16.6381 8.37252 16.4838 9.13399C16.3398 9.89546 16.0416 10.163 15.6713 10.163H11.9072L11.4136 12.715H14.7663Z" fill="#7384AA"/>
<path d="M19.4559 16.0282C19.2399 17.1704 19.7336 17.8804 20.7312 17.8804C21.7185 17.8804 22.5207 17.1807 22.747 16.0591V16.0076C22.8292 15.6063 23.1892 15.3079 24.0839 15.3079C24.9787 15.3079 25.2461 15.6063 25.1535 16.0076L25.1227 16.1722C24.6804 18.5081 22.5721 19.9281 20.3301 19.9281C18.0984 19.9281 16.5557 18.4772 17.0288 16.1208L17.8927 11.6858C18.3555 9.33961 20.4535 7.87842 22.6852 7.87842C24.9375 7.87842 26.4699 9.29845 26.0277 11.6343L25.9969 11.7989C25.9146 12.2003 25.534 12.4987 24.6393 12.4987C23.7446 12.4987 23.4977 12.2003 23.58 11.7989V11.7475C23.796 10.6259 23.2817 9.92615 22.2944 9.92615C21.3071 9.92615 20.5049 10.6362 20.289 11.7784L19.4559 16.0282Z" fill="#7384AA"/>
<path d="M35.1912 8.09473C35.5512 8.09473 35.7569 8.36227 35.6026 9.12374C35.4586 9.88521 35.1604 10.1527 34.7901 10.1527H32.4967L30.7483 19.1875C30.6661 19.5888 30.3061 19.8872 29.4114 19.8872C28.5166 19.8872 28.2492 19.5888 28.3418 19.1875L30.0901 10.1527H27.7967C27.4367 10.1527 27.2311 9.88521 27.3853 9.12374C27.5293 8.36227 27.8276 8.09473 28.1978 8.09473H35.1912Z" fill="#7384AA"/>
<path d="M38.0708 16.0078C37.8549 17.15 38.3691 17.8806 39.3564 17.8806C40.3437 17.8806 41.1562 17.15 41.3721 16.0078L42.812 8.65041C42.8737 8.2491 43.2542 7.95068 44.1489 7.95068C45.0437 7.95068 45.2905 8.2491 45.2185 8.65041L43.7684 16.1313C43.3056 18.4775 41.2076 19.9387 38.9553 19.9387C36.703 19.9387 35.1706 18.4878 35.6334 16.1313L37.0938 8.65041C37.1555 8.2491 37.536 7.95068 38.4308 7.95068C39.3255 7.95068 39.5724 8.2491 39.5004 8.65041L38.0708 16.0078Z" fill="#7384AA"/>
<path d="M50.9264 19.1769L52.3971 11.6034C52.6131 10.5332 52.2017 9.94666 51.3584 9.94666C50.5151 9.94666 49.8671 10.5229 49.6512 11.6034L48.1805 19.1769C48.0982 19.5782 47.7382 19.8766 46.8435 19.8766C45.9487 19.8766 45.6814 19.5782 45.7739 19.1769L47.2446 11.6548C47.6765 9.39099 49.4763 7.89893 51.6258 7.89893C52.7879 7.89893 53.6724 8.41343 54.0941 9.14403C54.8037 8.41343 55.8938 7.89893 57.056 7.89893C59.2054 7.89893 60.4087 9.39099 59.9871 11.6548L58.5164 19.1769C58.4341 19.5782 58.0741 19.8766 57.1794 19.8766C56.2846 19.8766 56.0172 19.5782 56.1098 19.1769L57.5805 11.6034C57.7965 10.5332 57.3851 9.94666 56.5418 9.94666C55.6984 9.94666 55.0505 10.5229 54.8345 11.6034L53.3639 19.1769C53.2816 19.5782 52.9216 19.8766 52.0269 19.8766C51.1116 19.8663 50.8442 19.5679 50.9264 19.1769Z" fill="#7384AA"/>
</svg>
