<svg width="35" height="35" viewBox="0 0 35 35" fill="none" xmlns="http://www.w3.org/2000/svg">
<path d="M17.3336 33.6667C8.31292 33.6667 1.00024 26.3539 1.00024 17.3333C1.00024 8.31268 8.31292 1 17.3336 1C26.3542 1 33.6669 8.31268 33.6669 17.3333C33.6669 26.3539 26.3542 33.6667 17.3336 33.6667ZM12.2542 19.2456L12.2748 19.2326C13.2217 22.3586 13.6951 23.9217 13.6951 23.9217C13.8785 24.4289 14.1306 24.5193 14.4366 24.478C14.7423 24.4365 14.9047 24.2711 15.1043 24.0785C15.1043 24.0785 15.7516 23.4538 17.0461 22.2044L21.2126 25.2873C21.9718 25.7068 22.5199 25.4904 22.7084 24.5816L25.4162 11.8068C25.7151 10.6178 25.1908 10.1409 24.2687 10.5183L8.37146 16.6589C7.28691 17.0949 7.29215 17.7017 8.17401 17.9721L12.2542 19.2456Z" fill="#487BFF"/>
</svg>
