<svg width="18" height="19" viewBox="0 0 18 19" fill="none" xmlns="http://www.w3.org/2000/svg">
<path d="M9 0.5C7.21997 0.5 5.47991 1.02784 3.99987 2.01677C2.51983 3.00571 1.36628 4.41131 0.685088 6.05585C0.00389956 7.70038 -0.17433 9.50998 0.172936 11.2558C0.520203 13.0016 1.37737 14.6053 2.63604 15.864C3.89471 17.1226 5.49836 17.9798 7.24419 18.3271C8.99002 18.6743 10.7996 18.4961 12.4442 17.8149C14.0887 17.1337 15.4943 15.9802 16.4832 14.5001C17.4722 13.0201 18 11.28 18 9.5C18 8.3181 17.7672 7.14778 17.3149 6.05585C16.8626 4.96392 16.1997 3.97177 15.364 3.13604C14.5282 2.30031 13.5361 1.63738 12.4442 1.18508C11.3522 0.732792 10.1819 0.5 9 0.5ZM9 8.6C9.63319 8.60491 10.2445 8.83221 10.7271 9.24216C11.2097 9.65211 11.5328 10.2186 11.6401 10.8427C11.7473 11.4668 11.6318 12.1087 11.3137 12.6562C10.9956 13.2037 10.4952 13.622 9.9 13.838V14.9H8.1V13.838C7.57481 13.6523 7.1199 13.3087 6.79765 12.8544C6.47539 12.4 6.30157 11.857 6.3 11.3H8.1C8.1 11.478 8.15279 11.652 8.25168 11.8C8.35057 11.948 8.49113 12.0634 8.65559 12.1315C8.82004 12.1996 9.001 12.2174 9.17558 12.1827C9.35017 12.148 9.51053 12.0623 9.6364 11.9364C9.76226 11.8105 9.84798 11.6502 9.88271 11.4756C9.91743 11.301 9.89961 11.12 9.83149 10.9556C9.76337 10.7911 9.64802 10.6506 9.50002 10.5517C9.35201 10.4528 9.17801 10.4 9 10.4C8.36681 10.3951 7.7555 10.1678 7.27291 9.75783C6.79032 9.34788 6.46717 8.78136 6.35994 8.1573C6.25272 7.53324 6.36824 6.89134 6.68631 6.34382C7.00438 5.79629 7.50477 5.37798 8.1 5.162V4.1H9.9V5.162C10.4252 5.34768 10.8801 5.69126 11.2024 6.14564C11.5246 6.60002 11.6984 7.14295 11.7 7.7H9.9C9.9 7.52199 9.84722 7.34799 9.74832 7.19998C9.64943 7.05198 9.50887 6.93663 9.34442 6.86851C9.17996 6.80039 8.999 6.78256 8.82442 6.81729C8.64984 6.85202 8.48947 6.93774 8.36361 7.0636C8.23774 7.18947 8.15202 7.34983 8.1173 7.52442C8.08257 7.699 8.10039 7.87996 8.16851 8.04441C8.23663 8.20887 8.35198 8.34943 8.49999 8.44832C8.64799 8.54721 8.822 8.6 9 8.6Z" fill="#487BFF"/>
</svg>
