<svg width="18" height="19" viewBox="0 0 18 19" fill="none" xmlns="http://www.w3.org/2000/svg">
<g filter="url(#filter0_i_89_10651)">
<circle cx="9.02246" cy="9.78125" r="8.97754" fill="#487BFF"/>
</g>
<circle cx="9.02246" cy="9.78125" r="8.47754" stroke="#487BFF"/>
<path d="M10.6274 10.2547L10.5534 10.262L10.539 10.335L10.2152 11.9829C10.2009 12.0496 10.1634 12.1125 10.0832 12.1655C9.99995 12.2205 9.86754 12.2666 9.66339 12.2867C9.45475 12.3072 9.34472 12.2833 9.29395 12.252C9.27177 12.2383 9.26228 12.2241 9.25753 12.2105C9.25218 12.1951 9.25001 12.1716 9.25733 12.1371L9.25758 12.1358L10.2216 7.2667L10.2217 7.2667L10.2218 7.26578C10.2396 7.17122 10.2696 7.10445 10.312 7.05941C10.3525 7.01626 10.4132 6.98369 10.5126 6.97387C10.5126 6.97387 10.5126 6.97386 10.5126 6.97386L11.9428 6.83331L11.9429 6.83331C12.4692 6.78156 12.853 6.89041 13.0798 7.12734C13.3051 7.36285 13.4003 7.75141 13.289 8.3179C13.0609 9.44746 12.261 10.0941 11.2201 10.1965C11.2201 10.1965 11.2201 10.1965 11.2201 10.1965L10.6274 10.2547ZM11.6151 7.6103L11.6249 7.7097L11.6151 7.6103L11.1411 7.65691L11.0672 7.66417L11.0527 7.73697L10.7288 9.37043L10.7026 9.50258L10.8367 9.4894L11.3107 9.4428C11.5779 9.41654 11.8054 9.32221 11.9812 9.15554C12.1565 8.98934 12.273 8.7582 12.3314 8.47072L12.3314 8.47072L12.3317 8.46937C12.3849 8.18754 12.3629 7.9521 12.2312 7.79398C12.0973 7.63311 11.8776 7.58451 11.6151 7.6103ZM9.22805 7.5183L9.22803 7.5183L9.22761 7.52052C9.1503 7.92736 9.03758 8.25724 8.81758 8.59189C8.5963 8.92848 8.26315 9.27502 7.73711 9.70944L7.648 9.78303L7.73363 9.86064C8.11093 10.2026 8.30494 10.5115 8.38854 10.8287C8.47262 11.1477 8.44834 11.4872 8.36646 11.898C8.36644 11.8981 8.36643 11.8981 8.36642 11.8982L8.31135 12.1694C8.31132 12.1696 8.31129 12.1697 8.31127 12.1698C8.29705 12.2367 8.25955 12.2996 8.17926 12.3527C8.09596 12.4077 7.96355 12.4537 7.75939 12.4738L7.75937 12.4738C7.55072 12.4944 7.44071 12.4705 7.38995 12.4392C7.36777 12.4255 7.35829 12.4114 7.35353 12.3977C7.34818 12.3823 7.34601 12.3588 7.35332 12.3242L7.35374 12.3221L7.4168 11.9888C7.41682 11.9886 7.41685 11.9885 7.41687 11.9884C7.47333 11.7024 7.49035 11.4502 7.42075 11.2072C7.35075 10.9628 7.19682 10.7402 6.93509 10.5054L6.87178 10.4486L6.80556 10.502C6.44527 10.7924 6.20537 11.044 6.04143 11.2985C5.87666 11.5542 5.79201 11.8076 5.73502 12.0961L5.73487 12.0969L5.67188 12.4299C5.65756 12.4965 5.62005 12.5593 5.53999 12.6122C5.4567 12.6672 5.32428 12.7132 5.12013 12.7333C4.91147 12.7538 4.80144 12.7299 4.75068 12.6986C4.7285 12.685 4.71902 12.6709 4.71427 12.6572C4.70892 12.6418 4.70675 12.6183 4.71406 12.5837L4.71422 12.583L4.76953 12.3105L4.7696 12.3102C4.85117 11.901 4.96253 11.5476 5.18431 11.1887C5.40668 10.8288 5.7435 10.4578 6.28332 10.0196L6.37223 9.94739L6.28874 9.86902C5.92382 9.52644 5.72586 9.24101 5.63426 8.94762C5.54273 8.65446 5.55334 8.34063 5.63091 7.9319L5.69389 7.63697L5.69397 7.63699L5.69468 7.63283C5.71451 7.51609 5.83263 7.37302 6.24588 7.3324C6.45455 7.31189 6.56225 7.33603 6.61182 7.36703C6.63347 7.38057 6.64342 7.39495 6.64872 7.40976C6.65456 7.42609 6.65711 7.45006 6.65145 7.48443L6.58859 7.79404L6.58858 7.79404L6.58849 7.79453C6.5272 8.10428 6.52887 8.35456 6.61227 8.58575C6.69518 8.81556 6.85457 9.01436 7.08447 9.22928L7.14935 9.28993L7.21724 9.23267C7.84947 8.69937 8.14534 8.31823 8.27019 7.68753C8.27021 7.68745 8.27023 7.68737 8.27024 7.68729L8.33336 7.37649L8.33341 7.3765L8.33394 7.37333C8.35377 7.2566 8.47189 7.11352 8.88525 7.0729L8.87548 6.97341L8.88526 7.0729C9.09387 7.05239 9.20153 7.07654 9.25108 7.10754C9.27272 7.12108 9.28268 7.13546 9.28798 7.15029C9.2938 7.16658 9.29635 7.19043 9.29079 7.22459L9.22805 7.5183Z" fill="#E1E1E1" stroke="#F7F8FA" stroke-width="0.2"/>
<defs>
<filter id="filter0_i_89_10651" x="0.0449219" y="0.803711" width="17.9551" height="18.9551" filterUnits="userSpaceOnUse" color-interpolation-filters="sRGB">
<feFlood flood-opacity="0" result="BackgroundImageFix"/>
<feBlend mode="normal" in="SourceGraphic" in2="BackgroundImageFix" result="shape"/>
<feColorMatrix in="SourceAlpha" type="matrix" values="0 0 0 0 0 0 0 0 0 0 0 0 0 0 0 0 0 0 127 0" result="hardAlpha"/>
<feMorphology radius="1" operator="erode" in="SourceAlpha" result="effect1_innerShadow_89_10651"/>
<feOffset dy="1"/>
<feGaussianBlur stdDeviation="1"/>
<feComposite in2="hardAlpha" operator="arithmetic" k2="-1" k3="1"/>
<feColorMatrix type="matrix" values="0 0 0 0 0.176471 0 0 0 0 0.294118 0 0 0 0 0.772549 0 0 0 1 0"/>
<feBlend mode="normal" in2="shape" result="effect1_innerShadow_89_10651"/>
</filter>
</defs>
</svg>
