<svg width="48" height="48" viewBox="0 0 48 48" fill="none" xmlns="http://www.w3.org/2000/svg">
<path fill-rule="evenodd" clip-rule="evenodd" d="M7.95668 37.2911C7.23699 37.073 6.58033 36.6849 6.0421 36.1597C5.50387 35.6345 5.09987 34.9876 4.8642 34.2734C3.51747 30.5824 3.11844 15.1699 5.71213 12.1273C6.57536 11.1375 7.79413 10.5281 9.10389 10.4314C16.062 9.68319 37.5597 9.78295 40.0287 10.6808C40.7232 10.9061 41.3576 11.2856 41.8845 11.7909C42.4115 12.2962 42.8172 12.9143 43.0713 13.5987C44.5428 17.4144 44.5926 31.2807 42.8718 34.9468C42.4153 35.9011 41.6511 36.6741 40.7021 37.1414C38.1084 38.4383 11.3983 38.4134 7.95668 37.2911ZM19.0048 30.0587L31.4745 23.5744L19.0048 17.0403V30.0587Z" fill="#F7F8FA"/>
</svg>
